<svg xmlns="http://www.w3.org/2000/svg" viewBox="0 0 104 30" fill="none">
  <defs>
    <style>
      .wordmark-path {
        fill: #090e1a;
      }
      @media (prefers-color-scheme: dark) {
        .wordmark-path {
          fill: #ffffff;
        }
      }
    </style>
  </defs>
  <!-- BEHOLD letters -->
  <path 
    class="wordmark-path"
    fill-rule="evenodd" 
    clip-rule="evenodd" 
    d="
      M 2,4 H 11.5 C 15,4 17,5.5 17,9.5 C 17,12 15.5,14 13.5,14.5 C 15.8,15 17,17 17,20.5 C 17,24.5 15,26 11.5,26 H 2 V 4 Z 
      M 7.5,9.5 H 10 C 11.5,9.5 12,10.2 12,11 C 12,11.8 11.5,12.5 10,12.5 H 7.5 V 9.5 Z 
      M 7.5,17.5 H 10.5 C 12,17.5 12.5,18.2 12.5,19 C 12.5,19.8 12,20.5 10.5,20.5 H 7.5 V 17.5 Z
      
      M 19.5,4 H 31.5 V 9.5 H 25 V 12.25 H 30.5 V 17.75 H 25 V 20.5 H 31.5 V 26 H 19.5 V 4 Z
      
      M 34,4 H 39.5 V 12.25 H 41.5 V 4 H 47 V 26 H 41.5 V 17.75 H 39.5 V 26 H 34 V 4 Z
      
      M 57.5,4 C 61.9,4 65.5,8.9 65.5,15 C 65.5,21.1 61.9,26 57.5,26 C 53.1,26 49.5,21.1 49.5,15 C 49.5,8.9 53.1,4 57.5,4 Z 
      M 57.5,9.5 C 56.1,9.5 55,12 55,15 C 55,18 56.1,20.5 57.5,20.5 C 58.9,20.5 60,18 60,15 C 60,12 58.9,9.5 57.5,9.5 Z
      
      M 68,4 H 73.5 V 20.5 H 79 V 26 H 68 V 4 Z
      
      M 81.5,4 H 89 C 93.5,4 96.5,7.5 96.5,15 C 96.5,22.5 93.5,26 89,26 H 81.5 V 4 Z 
      M 87,9.5 H 89 C 90.5,9.5 91.5,11.5 91.5,15 C 91.5,18.5 90.5,20.5 89,20.5 H 87 V 9.5 Z
    "
  />
  <!-- The cyan dot -->
  <circle cx="101.5" cy="23.5" r="2.5" fill="#00D1D1" />
</svg>